<svg xmlns="http://www.w3.org/2000/svg" width="320" height="200" viewBox="0 0 320 200" role="img" aria-label="Owl">
  <defs>
    <linearGradient id="g1" x1="0%" y1="0%" x2="100%" y2="100%">
      <stop offset="0%" stop-color="#c7d2fe"/>
      <stop offset="100%" stop-color="#93c5fd"/>
    </linearGradient>
  </defs>
  <rect width="320" height="200" rx="24" fill="url(#g1)"/>
  <path d="M70 72 Q110 18 160 32 Q210 18 250 72 L248 150 Q208 188 160 188 Q112 188 72 150 Z" fill="#e2e8f0" stroke="#0f172a" stroke-width="6" stroke-linejoin="round"/>
  <path d="M120 140 Q160 156 200 140" fill="#cbd5e1" stroke="#0f172a" stroke-width="5" stroke-linecap="round"/>
  <circle cx="125" cy="96" r="32" fill="#f8fafc" stroke="#0f172a" stroke-width="5"/>
  <circle cx="195" cy="96" r="32" fill="#f8fafc" stroke="#0f172a" stroke-width="5"/>
  <circle cx="125" cy="96" r="12" fill="#0f172a"/>
  <circle cx="195" cy="96" r="12" fill="#0f172a"/>
  <polygon points="160,112 140,138 180,138" fill="#fbbf24" stroke="#0f172a" stroke-width="4"/>
  <path d="M90 70 Q115 60 130 78" fill="#0f172a" opacity="0.25"/>
  <path d="M230 70 Q205 60 190 78" fill="#0f172a" opacity="0.25"/>
  <path d="M108 148 Q160 172 212 148" fill="none" stroke="#0f172a" stroke-width="6" stroke-linecap="round"/>
  <text x="50%" y="185" text-anchor="middle" fill="#0f172a" font-family="Arial, sans-serif" font-size="18">Owl · 계획형</text>
</svg>
