<svg xmlns="http://www.w3.org/2000/svg" width="320" height="200" viewBox="0 0 320 200" role="img" aria-label="Tiger">
  <defs>
    <linearGradient id="t1" x1="0%" y1="0%" x2="100%" y2="100%">
      <stop offset="0%" stop-color="#fed7aa"/>
      <stop offset="100%" stop-color="#fdba74"/>
    </linearGradient>
  </defs>
  <rect width="320" height="200" rx="24" fill="url(#t1)"/>
  <path d="M80 60 Q160 12 240 60 L240 150 Q160 195 80 150 Z" fill="#f97316" stroke="#111827" stroke-width="6" stroke-linejoin="round"/>
  <path d="M95 70 L115 35 M135 65 L150 30 M205 65 L220 30 M180 70 L195 40" stroke="#111827" stroke-width="6" stroke-linecap="round"/>
  <circle cx="135" cy="105" r="12" fill="#111827"/>
  <circle cx="185" cy="105" r="12" fill="#111827"/>
  <path d="M150 128 Q160 138 170 128" stroke="#111827" stroke-width="6" stroke-linecap="round"/>
  <path d="M130 124 L115 136 M190 124 L205 136" stroke="#111827" stroke-width="5" stroke-linecap="round"/>
  <path d="M120 150 Q160 168 200 150" fill="none" stroke="#111827" stroke-width="5" stroke-linecap="round"/>
  <text x="50%" y="185" text-anchor="middle" fill="#111827" font-family="Arial, sans-serif" font-size="18">Tiger · 주도형</text>
</svg>
